<?xml version="1.0" encoding="UTF-8"?>
<svg width="53px" height="41px" viewBox="0 0 53 41" version="1.1" xmlns="http://www.w3.org/2000/svg" xmlns:xlink="http://www.w3.org/1999/xlink">
    <title>A29522E7-01A6-44CF-B384-CED2DA9B230F</title>
    <defs>
        <linearGradient x1="12.4534884%" y1="70.0930436%" x2="55.5426422%" y2="47.552511%" id="linearGradient-1">
            <stop stop-color="#1D8DBA" offset="0%"></stop>
            <stop stop-color="#03ECAE" offset="100%"></stop>
        </linearGradient>
    </defs>
    <g id="Page-1" stroke="none" stroke-width="1" fill="none" fill-rule="evenodd">
        <g id="Landing" transform="translate(-949.000000, -682.000000)" fill-rule="nonzero">
            <g id="Group-3-Copy" transform="translate(461.823456, 682.510107)">
                <g id="Asset-2" transform="translate(487.176544, 0.000000)">
                    <path d="M52.0448149,23.7877961 C52.0448149,23.3024499 51.8520119,22.8369822 51.5088204,22.4937907 C51.1656288,22.1505991 50.7001611,21.9577961 50.2148149,21.9577961 L45.6248149,21.9577961 C45.0917704,21.9582184 44.5806113,21.7458355 44.2048149,21.3677961 C43.8292272,20.9944458 43.6170477,20.4873729 43.6148149,19.9577961 L43.6148149,15.4577961 C43.6648717,12.4905165 41.4779119,9.95915369 38.5348149,9.57779607 C36.944489,9.41967336 35.3614346,9.94125017 34.1765619,11.0137314 C32.9916892,12.0862127 32.3154442,13.6096287 32.3148149,15.2077961 L32.3148149,26.2077961 C32.321444,27.1489305 31.6863886,27.9736777 30.7748149,28.2077961 C30.2433468,28.3349842 29.6829807,28.2391612 29.2239738,27.9426012 C28.7649668,27.6460412 28.4473,27.1745754 28.3448149,26.6377961 L28.3448149,5.93779607 C28.4191177,2.95244348 26.2181882,0.396943753 23.2548149,0.0277960685 C21.6662197,-0.130158196 20.0847925,0.390105414 18.9002619,1.46037258 C17.7157313,2.53063975 17.0382637,4.05137113 17.0348149,5.64779607 L17.0348149,32.6477961 C17.0636499,33.6534691 16.3618341,34.5328528 15.3748149,34.7277961 C14.7884604,34.8290138 14.1874845,34.6638918 13.7351613,34.2772908 C13.2828381,33.8906898 13.0261429,33.3227594 13.0348149,32.7277961 L13.0348149,19.4177961 C13.0645611,18.0281005 12.6043514,16.6722521 11.7348149,15.5877961 C10.6537663,14.308225 9.05987153,13.5753998 7.38481494,13.5877961 L3.24481494,13.5877961 C2.76038331,13.5877888 2.29593725,13.7809103 1.95433212,14.1243924 C1.61272699,14.4678745 1.42215323,14.9333718 1.42478743,15.4177961 L1.42478743,15.4177961 C1.42478743,15.9022277 1.61792918,16.3666738 1.96141126,16.7082789 C2.30489334,17.049884 2.77039063,17.2404578 3.25481494,17.2377961 L7.38481494,17.2377961 C8.48938444,17.2377961 9.38481494,18.1332266 9.38481494,19.2377961 L9.38481494,32.4877961 C9.33535614,35.4584384 11.5277389,37.9910928 14.4748149,38.3677961 C16.0651409,38.5259188 17.6481952,38.004342 18.833068,36.9318607 C20.0179407,35.8593794 20.6941857,34.3359635 20.6948149,32.7377961 L20.6948149,5.79779607 C20.6692983,4.79115566 21.3685266,3.91080194 22.3548149,3.70779607 C22.9411694,3.60657835 23.5421454,3.77170031 23.9944686,4.15830133 C24.4467918,4.54490236 24.703487,5.11283269 24.6948149,5.70779607 L24.6948149,26.2577961 L24.6948149,26.2577961 C24.8650458,29.0926778 27.1131668,31.3606421 29.9464432,31.5557783 C32.7797195,31.7509145 35.3175415,29.8125724 35.8748149,27.0277961 L35.9348149,27.0277961 L35.9348149,15.3177961 C35.9092983,14.3111557 36.6085266,13.4308019 37.5948149,13.2277961 C38.1811694,13.1265784 38.7821454,13.2917003 39.2344686,13.6783013 C39.6867918,14.0649024 39.943487,14.6328327 39.9348149,15.2277961 L39.9348149,19.7777961 C39.9087503,21.1685949 40.3724487,22.5242934 41.2448149,23.6077961 C42.3236182,24.8846705 43.913248,25.6172188 45.5848149,25.6077961 L50.1948149,25.6077961 C51.1999732,25.6077961 52.0148149,24.7929543 52.0148149,23.7877961 L52.0448149,23.7877961 Z" id="Path" fill="url(#linearGradient-1)"></path>
                    <path d="M48.6748149,23.5077961 L44.0748149,23.5077961 C43.5452381,23.5055633 43.0381652,23.2933839 42.6648149,22.9177961 C42.2867755,22.5419997 42.0743926,22.0308407 42.0748149,21.4977961 L42.0748149,17.0277961 C42.128332,14.0575982 39.9326562,11.5254533 36.9848149,11.1577961 C35.3962197,10.9998418 33.8147925,11.5201054 32.6302619,12.5903726 C31.4457313,13.6606398 30.7682637,15.1813711 30.7648149,16.7777961 L30.7648149,27.7777961 C30.7655725,28.7136787 30.1382922,29.533653 29.2348149,29.7777961 C28.7018971,29.9048091 28.1402069,29.8076538 27.6809132,29.5090184 C27.2216195,29.210383 26.9049355,28.7364143 26.8048149,28.1977961 L26.8048149,7.47779607 C26.8496969,4.5088182 24.6595878,1.97879038 21.7148149,1.59779607 C20.1251963,1.44286525 18.5439552,1.96554976 17.3598361,3.03734881 C16.1757171,4.10914785 15.4985501,5.63064953 15.4948149,7.22779607 L15.4948149,34.2277961 C15.4955173,35.199881 14.8228303,36.0428159 13.8748149,36.2577961 C13.2900018,36.3556886 12.6918997,36.1890382 12.2419714,35.8028338 C11.7920432,35.4166293 11.5366784,34.8506899 11.5448149,34.2577961 L11.5448149,20.9577961 C11.5685258,19.5704136 11.1049616,18.2186463 10.2348149,17.1377961 C9.15601167,15.8609217 7.56638185,15.1283734 5.89481494,15.1377961 L1.69481494,15.1377961 C0.739197579,15.2085825 0,16.0045606 0,16.9627961 C0,17.9210316 0.739197579,18.7170097 1.69481494,18.7877961 L5.87481494,18.7877961 C6.97938444,18.7877961 7.87481494,19.6832266 7.87481494,20.7877961 L7.87481494,34.0277961 C7.82129787,36.997994 10.0169737,39.5301388 12.9648149,39.8977961 C14.5534102,40.0557503 16.1348374,39.5354867 17.319368,38.4652196 C18.5038986,37.3949524 19.1813662,35.874221 19.1848149,34.2777961 L19.1848149,7.33779607 C19.1641957,6.33488657 19.8623127,5.4601375 20.8448149,5.25779607 C21.4311694,5.15657835 22.0321454,5.32170031 22.4844686,5.70830133 C22.9367918,6.09490236 23.193487,6.66283269 23.1848149,7.25779607 L23.1848149,27.8077961 L23.1848149,27.8077961 C23.1631085,30.7903798 25.4635486,33.2761002 28.4388844,33.4850349 C31.4142202,33.6939696 34.0394765,31.5541425 34.4348149,28.5977961 L34.4948149,28.5977961 L34.4948149,16.8677961 C34.4702027,15.8580639 35.1745391,14.976589 36.1648149,14.7777961 C36.7496281,14.6799035 37.3477302,14.8465539 37.7976584,15.2327584 C38.2475867,15.6189629 38.5029515,16.1849022 38.4948149,16.7777961 L38.4948149,21.3377961 C38.4711041,22.7251785 38.9346683,24.0769459 39.8048149,25.1577961 C40.8858636,26.4373671 42.4797584,27.1701923 44.1548149,27.1577961 L48.7548149,27.1577961 C49.439072,27.2084817 50.0941908,26.872147 50.4517961,26.2865744 C50.8094013,25.7010017 50.8094013,24.9645904 50.4517961,24.3790178 C50.0941908,23.7934451 49.439072,23.4571104 48.7548149,23.5077961 L48.6748149,23.5077961 Z" id="Path" fill="#03ECAE" opacity="0.2"></path>
                </g>
            </g>
        </g>
    </g>
</svg>