<?xml version="1.0" encoding="UTF-8"?>
<svg width="48px" height="53px" viewBox="0 0 48 53" version="1.1" xmlns="http://www.w3.org/2000/svg" xmlns:xlink="http://www.w3.org/1999/xlink">
    <title>566DA766-4B5B-46DB-BEF3-2103A3D8FCC7</title>
    <g id="Page-1" stroke="none" stroke-width="1" fill="none" fill-rule="evenodd">
        <g id="Landing" transform="translate(-593.000000, -659.000000)" fill-rule="nonzero">
            <g id="Asset-3" transform="translate(593.000000, 659.500000)">
                <path d="M42.83,49 L42.83,49 C43.9345695,49 44.83,48.1045695 44.83,47 L44.83,43.34 L40.83,43.34 L40.83,47 C40.83,48.1045695 41.7254305,49 42.83,49 Z" id="Path" fill="#1D8DBA"></path>
                <path d="M40.83,37.59 L44.83,37.59 L44.83,2 C44.83,0.8954305 43.9345695,0 42.83,0 L42.83,0 C41.7254305,0 40.83,0.8954305 40.83,2 L40.83,37.59 Z" id="Path" fill="#1C8FB8"></path>
                <path d="M24.17,49 L24.17,49 C25.2745695,49 26.17,48.1045695 26.17,47 L26.17,23.51 L22.17,23.51 L22.17,47 C22.17,48.1045695 23.0654305,49 24.17,49 Z" id="Path" fill="#03EBAE"></path>
                <path d="M22.17,20.72 L26.17,20.72 L26.17,2 C26.17,0.8954305 25.2745695,0 24.17,0 L24.17,0 C23.0654305,0 22.17,0.8954305 22.17,2 L22.17,20.72 Z" id="Path" fill="#03ECAE"></path>
                <path d="M5.86,49 L5.86,49 C6.9645695,49 7.86,48.1045695 7.86,47 L7.86,38.66 L3.86,38.66 L3.86,47 C3.86,48.1045695 4.7554305,49 5.86,49 Z" id="Path" fill="#1C8FB8"></path>
                <path d="M7.81,33.26 L7.86,2 C7.86,0.8954305 6.9645695,0 5.86,0 L5.86,0 C4.7554305,0 3.86,0.8954305 3.86,2 L3.86,33.26 L7.81,33.26 Z" id="Path" fill="#1D8CB9"></path>
                <rect id="Rectangle" fill="#03EBAD" x="1.63" y="35.79" width="8.47" height="4" rx="1.31"></rect>
                <rect id="Rectangle" fill="#1D8CB9" x="19.93" y="22.93" width="8.47" height="4" rx="1.31"></rect>
                <rect id="Rectangle" fill="#03EBAE" x="38.6" y="39.95" width="8.47" height="4" rx="1.31"></rect>
                <g id="Group" opacity="0.2" transform="translate(0.000000, 1.940000)">
                    <path d="M41.21,48.97 L41.21,48.97 C42.3145695,48.97 43.21,48.0745695 43.21,46.97 L43.21,43.34 L39.21,43.34 L39.21,46.97 C39.21,48.0745695 40.1054305,48.97 41.21,48.97 Z" id="Path" fill="#1C8FB8"></path>
                    <path d="M39.21,37.59 L43.21,37.59 L43.21,2 C43.21,0.8954305 42.3145695,0 41.21,0 L41.21,0 C40.1054305,0 39.21,0.8954305 39.21,2 L39.21,37.59 Z" id="Path" fill="#1C8FB8"></path>
                    <path d="M22.54,48.97 L22.54,48.97 C23.6445695,48.97 24.54,48.0745695 24.54,46.97 L24.54,23.51 L20.54,23.51 L20.54,46.97 C20.54,48.0745695 21.4354305,48.97 22.54,48.97 Z" id="Path" fill="#03ECAE"></path>
                    <path d="M20.54,20.72 L24.54,20.72 L24.54,2 C24.54,0.8954305 23.6445695,0 22.54,0 L22.54,0 C21.4354305,0 20.54,0.8954305 20.54,2 L20.54,20.72 Z" id="Path" fill="#03ECAE"></path>
                    <path d="M4.24,48.97 L4.24,48.97 C5.3445695,48.97 6.24,48.0745695 6.24,46.97 L6.24,38.65 L2.24,38.65 L2.24,46.97 C2.24,48.0745695 3.1354305,48.97 4.24,48.97 Z" id="Path" fill="#1C8FB8"></path>
                    <path d="M6.19,33.26 L6.19,2 C6.19,0.8954305 5.2945695,0 4.19,0 L4.19,0 C3.0854305,0 2.19,0.8954305 2.19,2 L2.19,33.27 L6.19,33.26 Z" id="Path" fill="#1C8FB8"></path>
                    <rect id="Rectangle" fill="#03ECAE" x="0" y="35.78" width="8.47" height="4" rx="1.31"></rect>
                    <rect id="Rectangle" fill="#1D8DBA" x="18.31" y="22.93" width="8.47" height="4" rx="1.31"></rect>
                    <rect id="Rectangle" fill="#03EBAE" x="36.97" y="39.95" width="8.47" height="4" rx="1.31"></rect>
                    <path d="M42.75,1.54 C43.8545695,1.54 44.75,2.4354305 44.75,3.54 L44.75,39.14 L40.75,39.14 L40.75,3.54 C40.75,2.4354305 41.6454305,1.54 42.75,1.54 Z" id="Path" fill="#1D8CB9"></path>
                    <path d="M24.09,1.54 C25.1945695,1.54 26.09,2.4354305 26.09,3.54 L26.09,22.26 L22.09,22.26 L22.09,3.54 C22.09,2.4354305 22.9854305,1.54 24.09,1.54 Z" id="Path" fill="#03ECAE"></path>
                    <path d="M3.78,3.53999997 C3.78,2.82546881 4.16119783,2.16521476 4.78,1.80794917 C5.39880215,1.45068357 6.16119785,1.45068357 6.78,1.80794917 C7.39880217,2.16521476 7.78,2.82546881 7.78,3.53999997 L7.78,34.8 L3.78,34.8 L3.78,3.53999997 Z" id="Path" fill="#1D8CB9"></path>
                    <path d="M2.86,37.33 L8.7,37.33 C9.41731811,37.3408497 9.9946472,37.9226198 10,38.64 L10,40.06 C9.97347323,40.761738 9.40216601,41.3198612 8.7,41.33 L7.78,41.33 L7.78,48.51 C7.78,49.6145695 6.8845695,50.51 5.78,50.51 C4.6754305,50.51 3.78,49.6145695 3.78,48.51 L3.78,41.33 L2.86,41.33 C2.15184438,41.3303302 1.571623,40.7678255 1.55,40.06 L1.55,38.64 C1.55,37.916507 2.13650698,37.33 2.86,37.33 Z" id="Path" fill="#03EBAE"></path>
                    <path d="M28.3200397,25.79 L28.3200397,27.16 C28.322734,27.5100054 28.1842147,27.8463259 27.9357767,28.0928818 C27.6873386,28.3394377 27.3499745,28.4753955 27,28.47 L26.08,28.47 L26.08,48.47 C26.08,49.5745695 25.1845695,50.47 24.08,50.47 C22.9754305,50.47 22.08,49.5745695 22.08,48.47 L22.08,28.47 L21.16,28.47 C20.810837,28.4726654 20.4750586,28.3358256 20.2272189,28.0898634 C19.9793792,27.8439013 19.84,27.5091732 19.84,27.16 L19.84,25.79 C19.84,25.0609841 20.4309841,24.4699615 21.16,24.4699615 L27,24.4699615 C27.3509032,24.467311 27.688215,24.6055183 27.9363483,24.8536517 C28.1844817,25.101785 28.322689,25.4390968 28.3200397,25.79 Z" id="Path" fill="#03EBAE"></path>
                    <path d="M47,42.81 L47,44.18 C47,44.5274336 46.8619825,44.8606372 46.6163099,45.1063099 C46.3706372,45.3519825 46.0374336,45.49 45.69,45.49 L44.76,45.49 L44.76,48.49 C44.76,49.5945695 43.8645695,50.49 42.76,50.49 C41.6554305,50.49 40.76,49.5945695 40.76,48.49 L40.76,45.49 L39.84,45.49 C39.4925664,45.49 39.1593628,45.3519825 38.9136901,45.1063099 C38.6680175,44.8606372 38.5299618,44.5274336 38.5299618,44.18 L38.5299618,42.81 C38.5273346,42.460837 38.6641744,42.1250586 38.9101366,41.8772189 C39.1560987,41.6293792 39.4908268,41.49 39.84,41.49 L45.69,41.49 C46.4151076,41.4954934 47,42.0848716 47,42.81 L47,42.81 Z" id="Path" fill="#03ECAE"></path>
                </g>
            </g>
        </g>
    </g>
</svg>