<?xml version="1.0" encoding="UTF-8"?>
<svg width="53px" height="53px" viewBox="0 0 53 53" version="1.1" xmlns="http://www.w3.org/2000/svg" xmlns:xlink="http://www.w3.org/1999/xlink">
    <title>354D3F54-02BE-4885-97C5-DA08DFE4DE3C</title>
    <g id="Page-1" stroke="none" stroke-width="1" fill="none" fill-rule="evenodd">
        <g id="Landing" transform="translate(-215.000000, -667.000000)" fill-rule="nonzero">
            <g id="Group-3" transform="translate(86.433750, 667.270040)">
                <g id="Group-4" transform="translate(128.769628, 0.000000)">
                    <path d="M27.0007433,50.92 C12.9395736,50.92 1.54074334,39.5211697 1.54074334,25.46 C1.54074334,11.3988303 12.9395736,0 27.0007433,0 C41.0619131,0 52.4607433,11.3988303 52.4607433,25.46 C52.4442121,39.5143166 41.0550599,50.9034687 27.0007433,50.92 Z M27.0007433,4 C15.1487126,4 5.54074334,13.6079693 5.54074334,25.46 C5.54074334,37.3120307 15.1487126,46.92 27.0007433,46.92 C38.8527741,46.92 48.4607433,37.3120307 48.4607433,25.46 C48.4497173,13.6125394 38.8482039,4.01102603 27.0007433,4 Z" id="Shape" fill="#1D8DBA"></path>
                    <path d="M10.0007433,25.4600208 L10.0007433,25.4600208 C9.43949828,25.4620315 8.90322614,25.228146 8.52285836,24.815447 C8.14249058,24.4027479 7.95303352,23.8492172 8.00074334,23.29 C9.02737195,14.4346102 16.0229428,7.45561652 24.8807433,6.45 C25.4230639,6.4172555 25.9553685,6.60655446 26.3552435,6.97436397 C26.7551184,7.34217348 26.9881483,7.8568378 27.0007433,8.4 L27.0007433,8.49 C26.9810846,9.4983472 26.2137274,10.334295 25.2107433,10.44 C18.2917457,11.277905 12.8386484,16.7310024 12.0007433,23.65 C11.9024818,24.6797661 11.0351763,25.4646775 10.0007433,25.4600208 Z" id="Path" fill="#03ECAE"></path>
                    <path d="M27.0006554,42.64 L27.0006554,42.32 C27.0006554,41.3774193 27.7132014,40.5873317 28.6507433,40.49 C35.6341131,39.7173848 41.1651056,34.236109 42.0007433,27.26 C42.1038273,26.2341974 42.9697872,25.4548335 44.0007433,25.4599745 L44.0007433,25.4599745 C44.5619884,25.4579685 45.0982605,25.691854 45.4786283,26.104553 C45.8589961,26.5172521 46.0484532,27.0707828 46.0007433,27.63 C44.967506,36.5289884 37.9085393,43.5256701 29.0007433,44.48 C28.4849369,44.5281496 27.9728904,44.3554236 27.5916421,44.0046752 C27.2103939,43.6539268 26.99567,43.1580241 27.0006554,42.64 Z" id="Path" fill="#03ECAE"></path>
                    <path d="M16.0707433,25.46 L16.0707433,25.46 C15.47578,25.4686721 14.9078496,25.2119768 14.5212486,24.7596536 C14.1346476,24.3073304 13.9695256,23.7063545 14.0707433,23.12 C15.0612084,17.7144014 19.3087308,13.494797 24.7207433,12.54 C25.2857317,12.4599314 25.8580169,12.6250131 26.2935584,12.9936952 C26.7290999,13.3623772 26.9864165,13.8995462 27.0008239,14.47 L27.0008239,14.55 C27.0091778,15.4815409 26.354284,16.2875639 25.4407433,16.47 C23.5340225,16.8035844 21.7828904,17.7351867 20.4407433,19.13 C19.1709322,20.4219229 18.3205302,22.0669628 18.0007433,23.85 C17.8170882,24.7743586 17.013052,25.4450831 16.0707433,25.46 Z" id="Path" fill="#03ECAE"></path>
                    <path d="M27.0007257,36.58 L27.0007257,36.27 C27.0149553,35.3508676 27.691737,34.5767986 28.6007433,34.44 C32.3694139,33.7652218 35.3208696,30.8177546 36.0007433,27.05 C36.1942015,26.1263109 37.0070193,25.4635517 37.9507433,25.46 L37.9507433,25.46 C38.5457067,25.4513279 39.113637,25.7080232 39.5002381,26.1603464 C39.8868391,26.6126696 40.0519611,27.2136455 39.9507433,27.8 C38.9494163,33.2552608 34.6329308,37.4957377 29.1607433,38.4 C28.6236683,38.4948551 28.0721874,38.3465638 27.6551148,37.9951415 C27.2380423,37.6437193 26.9983594,37.1253819 27.0007257,36.58 L27.0007257,36.58 Z" id="Path" fill="#03ECAE"></path>
                    <path d="M27.0007433,32.7400069 C24.0503975,32.7440443 21.3884996,30.9693769 20.2575821,28.2443847 C19.1266646,25.5193924 19.7497302,22.3814099 21.8359418,20.2951984 C23.9221533,18.2089869 27.0601358,17.5859212 29.785128,18.7168387 C32.5101202,19.8477563 34.2847877,22.5096541 34.2807502,25.46 C34.275235,29.4783491 31.0190925,32.7344916 27.0007433,32.7400069 Z M27.0007433,22.1699847 C25.66916,22.1659526 24.466441,22.9649642 23.9540592,24.194027 C23.4416774,25.4230898 23.7206821,26.8398145 24.6608238,27.7828225 C25.6009655,28.7258305 27.0168344,29.0091466 28.2474512,28.5005087 C29.4780681,27.9918707 30.2807433,26.7915895 30.2807433,25.46 C30.2807433,23.6468813 28.8138537,22.175511 27.0007433,22.1699847 Z" id="Shape" fill="#1D8DBA"></path>
                    <path d="M25.4607433,1.55 C15.1622247,1.55 5.87795286,7.7542132 1.93781525,17.2691909 C-2.00232236,26.7841686 0.177760639,37.7357527 7.46134323,45.0164745 C14.7449258,52.2971963 25.6973655,54.4729768 35.2107946,50.5291016 C44.7242237,46.5852263 50.9247883,37.2985178 50.9207453,27 C50.8987045,12.9495888 39.5111621,1.56651912 25.4607433,1.55 Z M25.4607433,48.46 C13.6087126,48.46 4.00074334,38.8520307 4.00074334,27 C4.00074334,15.1479693 13.6087126,5.54 25.4607433,5.54 C37.3127741,5.54 46.9207433,15.1479693 46.9207433,27 C46.9097173,38.8474606 37.3082039,48.448974 25.4607433,48.46 L25.4607433,48.46 Z" id="Shape" fill="#1C8FBA" opacity="0.2"></path>
                    <path d="M15.9007433,15.3 C18.1214247,13.4788509 20.8182364,12.3334869 23.6707433,12 C24.6925805,11.8921266 25.4664216,11.0274997 25.4607433,10 L25.4607433,10 C25.480787,9.44045842 25.2581058,8.89954179 24.8499365,8.51628424 C24.4417672,8.13302668 23.8879166,7.94480551 23.3307433,8 C14.4767311,9.00197025 7.48372916,15.9783913 6.46074334,24.83 C6.41005522,25.3908639 6.59817195,25.9471078 6.97887846,26.3620779 C7.35958498,26.777048 7.89759823,27.0122858 8.46074334,27.0100208 L8.46074334,27.0100208 C9.49517633,27.0146775 10.3624818,26.2297661 10.4607433,25.2 C10.9239322,21.3201444 12.8740475,17.7712214 15.9007433,15.3 L15.9007433,15.3 Z" id="Path" fill="#06E4AF" opacity="0.2"></path>
                    <path d="M36.1507433,37.7 C33.7325187,40.1293705 30.5574431,41.6604626 27.1507433,42.04 C26.2130356,42.1321568 25.4964673,42.917792 25.4907301,43.86 L25.4907301,44.19 C25.4887846,44.7070284 25.7044462,45.201024 26.0849461,45.5510839 C26.4654461,45.9011439 26.97567,46.074963 27.4907433,46.03 C36.3985393,45.0756701 43.457506,38.0789884 44.4907433,29.18 C44.5384532,28.6207828 44.3489961,28.0672521 43.9686283,27.654553 C43.5882605,27.241854 43.0519884,27.0079685 42.4907433,27.009969 L42.4907433,27.009969 C41.4632437,27.0043218 40.5986168,27.7781628 40.4907433,28.8 C40.0862994,32.1703704 38.5572745,35.3059284 36.1507433,37.7 Z" id="Path" fill="#06E4AF" opacity="0.2"></path>
                    <path d="M23.9007433,18 C24.8164798,17.8212128 25.4731989,17.0129432 25.4607433,16.08 L25.4607433,16 C25.4495988,15.4257686 25.1921254,14.8840415 24.7539003,14.5127941 C24.3156752,14.1415466 23.7389972,13.9766126 23.1707433,14.06 C17.7643031,15.0354876 13.5313237,19.2644811 12.5507433,24.67 C12.3938406,25.7340746 13.1066036,26.7316895 14.1640952,26.9281192 C15.2215868,27.1245489 16.2450592,26.4494409 16.4807433,25.4 C17.1595106,21.6224254 20.1213505,18.6685689 23.9007433,18 L23.9007433,18 Z" id="Path" fill="#06E4AF" opacity="0.2"></path>
                    <path d="M27.0607433,36 C26.1532971,36.132285 25.4756717,36.9030839 25.4607433,37.82 L25.4607433,38.14 C25.4504903,38.6890794 25.6847144,39.2143335 26.1000386,39.5736372 C26.5153628,39.9329409 27.0688527,40.0891512 27.6107433,40 C33.090581,39.0792025 37.3988215,34.8110015 38.3707433,29.34 C38.5488244,28.2669814 37.836729,27.2483636 36.7678175,27.0470928 C35.6989059,26.8458219 34.6651096,27.5356967 34.4407433,28.6 C33.7673015,32.3657107 30.8246177,35.3163693 27.0607433,36 Z" id="Path" fill="#06E4AF" opacity="0.2"></path>
                    <path d="M32.7407502,27 C32.7447877,24.0496541 30.9701202,21.3877563 28.245128,20.2568387 C25.5201358,19.1259212 22.3821533,19.7489869 20.2959418,21.8351984 C18.2097302,23.9214099 17.5866646,27.0593924 18.7175821,29.7843847 C19.8484996,32.5093769 22.5103975,34.2840443 25.4607433,34.2800069 C29.4790925,34.2744916 32.735235,31.0183491 32.7407502,27 Z M22.170728,27 C22.166696,25.6684167 22.9657075,24.4656976 24.1947703,23.9533158 C25.4238331,23.440934 26.8405579,23.7199388 27.7835658,24.6600805 C28.7265738,25.6002222 29.00989,27.016091 28.501252,28.2467079 C27.992614,29.4773248 26.7923328,30.28 25.4607433,30.28 C23.6498872,30.2745457 22.1817101,28.8108311 22.170728,27 L22.170728,27 Z" id="Shape" fill="#1D8DBA" opacity="0.2"></path>
                </g>
            </g>
        </g>
    </g>
</svg>