<?xml version="1.0" encoding="UTF-8"?>
<svg width="693px" height="815px" viewBox="0 0 693 815" version="1.1" xmlns="http://www.w3.org/2000/svg" xmlns:xlink="http://www.w3.org/1999/xlink">
    <title>60CF9AC6-2144-4EB6-96F4-06A2D3DC7A9C</title>
    <defs>
        <linearGradient x1="12.4534884%" y1="77.9567549%" x2="55.5426422%" y2="46.5946498%" id="linearGradient-1">
            <stop stop-color="#1D8DBA" offset="0%"></stop>
            <stop stop-color="#03ECAE" offset="100%"></stop>
        </linearGradient>
    </defs>
    <g id="Page-1" stroke="none" stroke-width="1" fill="none" fill-rule="evenodd" opacity="0.0252205985">
        <g id="Sign-In" transform="translate(-747.000000, -115.000000)" fill="url(#linearGradient-1)">
            <path d="M1585.50663,-120 C1634.40541,-120 1674.18769,-80.2437324 1674.18769,-31.3319488 C1674.18769,-16.8183751 1662.40517,-5.07486525 1647.9176,-5.07486525 C1633.40403,-5.07486525 1621.64751,-16.8183751 1621.64751,-31.3319488 C1621.64751,-51.2425951 1605.43029,-67.459823 1585.50663,-67.459823 C1565.59599,-67.459823 1549.37876,-51.2425951 1549.37876,-31.3319488 L1549.37876,843.292934 C1549.37876,892.217722 1509.59648,932 1460.6977,932 C1411.79892,932 1372.01665,892.217722 1372.01665,843.292934 L1372.01665,409.368294 C1372.01665,394.841715 1383.77316,383.0852 1398.28674,383.0852 C1412.81331,383.0852 1424.56983,394.841715 1424.56983,409.368294 L1424.56983,843.292934 C1424.56983,863.216585 1440.77405,879.446818 1460.6977,879.446818 C1480.60835,879.446818 1496.82558,863.216585 1496.82558,843.292934 L1496.82558,-31.3319488 C1496.82558,-80.2437324 1536.60786,-120 1585.50663,-120 Z M1086.27091,115.156307 C1135.16969,115.156307 1174.95197,154.912575 1174.95197,203.837363 C1174.95197,218.363942 1163.18245,230.094447 1148.66887,230.094447 C1134.1553,230.094447 1122.39879,218.363942 1122.39879,203.837363 C1122.39879,183.926717 1106.19456,167.709489 1086.27091,167.709489 C1066.34726,167.709489 1050.14304,183.926717 1050.14304,203.837363 L1050.14304,690.887405 C1050.14304,739.773179 1010.36076,779.568462 961.461982,779.568462 C912.576208,779.568462 872.79393,739.773179 872.79393,690.887405 L872.79393,488.594719 C872.79393,474.081145 884.550445,462.32463 899.077024,462.32463 C913.564588,462.32463 925.334107,474.081145 925.334107,488.594719 L925.334107,690.887405 C925.334107,710.798052 941.53833,727.002275 961.461982,727.002275 C981.385633,727.002275 997.602861,710.798052 997.602861,690.887405 L997.602861,203.837363 C997.602861,154.912575 1037.37213,115.156307 1086.27091,115.156307 Z M1335.88877,243.398556 C1384.77455,243.398556 1424.56983,283.180834 1424.56983,332.092617 C1424.56983,346.606191 1412.81331,358.375711 1398.28674,358.375711 C1383.77316,358.375711 1372.01665,346.606191 1372.01665,332.092617 C1372.01665,312.168966 1355.81242,295.964743 1335.88877,295.964743 C1315.97813,295.964743 1299.7609,312.168966 1299.7609,332.092617 L1299.7609,568.588439 C1299.7609,617.500223 1259.96562,657.25649 1211.06684,657.25649 C1162.18106,657.25649 1122.39879,617.500223 1122.39879,568.588439 L1122.39879,281.11304 C1122.39879,266.586461 1134.1553,254.842951 1148.66887,254.842951 C1163.18245,254.842951 1174.95197,266.586461 1174.95197,281.11304 L1174.95197,568.588439 C1174.95197,588.51209 1191.15619,604.729318 1211.06684,604.729318 C1230.99049,604.729318 1247.20772,588.51209 1247.20772,568.588439 L1247.20772,332.092617 C1247.20772,283.180834 1287.003,243.398556 1335.88877,243.398556 Z M1647.9176,19.6606339 C1662.40517,19.6606339 1674.18769,31.4171488 1674.18769,45.9307224 L1674.18769,522.914899 C1674.18769,542.825545 1690.39191,559.042773 1710.31556,559.042773 C1730.22621,559.042773 1746.44344,542.825545 1746.44344,522.914899 L1746.44344,380.133066 C1746.44344,331.208278 1786.22572,291.426 1835.12449,291.426 C1884.01027,291.426 1923.79255,331.208278 1923.79255,380.133066 C1923.79255,394.633635 1912.03603,406.403155 1897.52246,406.403155 C1883.00888,406.403155 1871.25237,394.633635 1871.25237,380.133066 C1871.25237,360.183405 1855.06115,344.005192 1835.12449,344.005192 C1815.20084,344.005192 1798.98362,360.183405 1798.98362,380.133066 L1798.98362,522.914899 C1798.98362,571.813677 1759.20134,611.595955 1710.31556,611.595955 C1661.41679,611.595955 1621.64751,571.813677 1621.64751,522.914899 L1621.64751,45.9307224 C1621.64751,31.4171488 1633.40403,19.6606339 1647.9176,19.6606339 Z M836.653051,322.637986 C885.55183,322.637986 925.334107,362.420264 925.334107,411.332048 C925.334107,425.819611 913.564588,437.589131 899.077024,437.589131 C884.550445,437.589131 872.79393,425.819611 872.79393,411.332048 C872.79393,391.395391 856.589708,375.191168 836.653051,375.191168 C816.742405,375.191168 800.525177,391.395391 800.525177,411.332048 L800.525177,566.61168 C800.525177,581.151263 788.768662,592.907778 774.255089,592.907778 C759.741515,592.907778 747.985,581.151263 747.985,566.61168 L747.985,411.332048 C747.985,362.420264 787.767278,322.637986 836.653051,322.637986 Z M1897.52246,431.112644 C1912.03603,431.112644 1923.79255,442.882164 1923.79255,457.408743 L1923.79255,566.61168 C1923.79255,581.151263 1912.03603,592.907778 1897.52246,592.907778 C1883.00888,592.907778 1871.25237,581.151263 1871.25237,566.61168 L1871.25237,457.408743 C1871.25237,442.882164 1883.00888,431.112644 1897.52246,431.112644 Z" id="Combined-Shape"></path>
        </g>
    </g>
</svg>