<?xml version="1.0" encoding="UTF-8"?>
<svg width="25px" height="24px" viewBox="0 0 25 24" version="1.1" xmlns="http://www.w3.org/2000/svg" xmlns:xlink="http://www.w3.org/1999/xlink">
    <title>D3F2E9BD-83CE-4564-B74C-411A9CC09276</title>
    <g id="Page-1" stroke="none" stroke-width="1" fill="none" fill-rule="evenodd">
        <g id="Sounds" transform="translate(-1075.000000, -289.000000)" fill="#E9E9E9" fill-rule="nonzero">
            <g id="#gr" transform="translate(1075.500000, 289.002000)">
                <rect id="Rectangle" opacity="0" x="0" y="0" width="24" height="24"></rect>
                <rect id="Rectangle" x="4" y="18" width="16" height="2" rx="1"></rect>
                <rect id="Rectangle" transform="translate(5.000000, 18.000000) rotate(-90.000000) translate(-5.000000, -18.000000) " x="3" y="17" width="4" height="2" rx="1"></rect>
                <rect id="Rectangle" transform="translate(19.000000, 18.000000) rotate(-90.000000) translate(-19.000000, -18.000000) " x="17" y="17" width="4" height="2" rx="1"></rect>
                <path d="M12,15.0000289 C11.7926819,15.0015747 11.5899997,14.9386733 11.42,14.82 L7.42,12 C6.97118524,11.6816174 6.86393305,11.0604485 7.18,10.61 C7.33307413,10.3915524 7.56707839,10.2433143 7.82998479,10.1982446 C8.09289119,10.1531749 8.3629079,10.2150095 8.58,10.37 L12,12.76 L15.4,10.2 C15.8418278,9.86862915 16.4686292,9.9581722 16.8,10.4 C17.1313708,10.8418278 17.0418278,11.4686292 16.6,11.8 L12.6,14.8 C12.4269038,14.9298221 12.2163702,15.0000289 12,15.0000289 L12,15.0000289 Z" id="Path"></path>
                <path d="M12,13 C11.4477153,13 11,12.5522847 11,12 L11,4 C11,3.44771525 11.4477153,3 12,3 C12.5522847,3 13,3.44771525 13,4 L13,12 C13,12.5522847 12.5522847,13 12,13 Z" id="Path"></path>
            </g>
        </g>
    </g>
</svg>