<?xml version="1.0" encoding="UTF-8"?>
<svg width="20px" height="21px" viewBox="0 0 20 21" version="1.1" xmlns="http://www.w3.org/2000/svg" xmlns:xlink="http://www.w3.org/1999/xlink">
    <title>778B452A-7F2F-49C5-9B67-74783EE13374</title>
    <g id="Page-1" stroke="none" stroke-width="1" fill="none" fill-rule="evenodd">
        <g id="Sign-In" transform="translate(-943.000000, -348.000000)" fill-rule="nonzero">
            <g id="google-color" transform="translate(943.000000, 348.000000)">
                <path d="M4.18181818,10.212766 C4.18181818,9.56414183 4.28954545,8.94229787 4.48181817,8.35903545 L1.11636364,5.78904966 C0.460454545,7.12079434 0.0909090911,8.62139009 0.0909090911,10.212766 C0.0909090911,11.8027801 0.46,13.3024681 1.115,14.633305 L4.47863638,12.0583263 C4.28818183,11.4777872 4.18181818,10.8582128 4.18181818,10.212766" id="Path" fill="#FBBC05"></path>
                <path d="M10.0909091,4.31205672 C11.5,4.31205672 12.7727273,4.81134753 13.7727273,5.62836881 L16.6818182,2.72340426 C14.9090909,1.18014184 12.6363636,0.226950354 10.0909091,0.226950354 C6.13909089,0.226950354 2.74272727,2.48692199 1.11636364,5.78904966 L4.48181817,8.35903545 C5.25727272,6.00510638 7.46772728,4.31205672 10.0909091,4.31205672" id="Path" fill="#EB4335"></path>
                <path d="M10.0909091,16.1134752 C7.46772728,16.1134752 5.25727272,14.4204255 4.48181817,12.0664965 L1.11636364,14.6360284 C2.74272727,17.9386099 6.13909089,20.1985816 10.0909091,20.1985816 C12.53,20.1985816 14.8586364,19.332539 16.6063636,17.709844 L13.4118182,15.2401702 C12.5104546,15.808 11.3754546,16.1134752 10.0909091,16.1134752" id="Path" fill="#34A853"></path>
                <path d="M19.6363636,10.212766 C19.6363636,9.62269502 19.5454546,8.98723404 19.4090909,8.39716311 L10.0909091,8.39716311 L10.0909091,12.2553191 L15.4545454,12.2553191 C15.1863636,13.5707234 14.4563636,14.5820142 13.4118182,15.2401702 L16.6063636,17.709844 C18.4422727,16.0059007 19.6363636,13.467688 19.6363636,10.212766" id="Path" fill="#4285F4"></path>
            </g>
        </g>
    </g>
</svg>