<?xml version="1.0" encoding="UTF-8"?>
<svg width="178px" height="42px" viewBox="0 0 178 42" version="1.1" xmlns="http://www.w3.org/2000/svg" xmlns:xlink="http://www.w3.org/1999/xlink">
    <title>52416E76-9FED-4EF4-928D-730082634868</title>
    <defs>
        <linearGradient x1="12.4534884%" y1="77.9567549%" x2="55.5426422%" y2="46.5946498%" id="linearGradient-1">
            <stop stop-color="#1D8DBA" offset="0%"></stop>
            <stop stop-color="#03ECAE" offset="100%"></stop>
        </linearGradient>
    </defs>
    <g id="Page-1" stroke="none" stroke-width="1" fill="none" fill-rule="evenodd">
        <g id="Landing" transform="translate(-36.000000, -17.000000)">
            <g id="Group" transform="translate(36.042000, 17.777000)">
                <path d="M32.2,0 C34.08,0 35.6095,1.5285 35.6095,3.409 C35.6095,3.967 35.1565,4.4185 34.5995,4.4185 C34.0415,4.4185 33.5895,3.967 33.5895,3.409 C33.5895,2.6435 32.966,2.02 32.2,2.02 C31.4345,2.02 30.811,2.6435 30.811,3.409 L30.811,37.0355 C30.811,38.9165 29.2815,40.446 27.4015,40.446 C25.5215,40.446 23.992,38.9165 23.992,37.0355 L23.992,20.3525 C23.992,19.794 24.444,19.342 25.002,19.342 C25.5605,19.342 26.0125,19.794 26.0125,20.3525 L26.0125,37.0355 C26.0125,37.8015 26.6355,38.4255 27.4015,38.4255 C28.167,38.4255 28.7905,37.8015 28.7905,37.0355 L28.7905,3.409 C28.7905,1.5285 30.32,0 32.2,0 Z M13.006,9.041 C14.886,9.041 16.4155,10.5695 16.4155,12.4505 C16.4155,13.009 15.963,13.46 15.405,13.46 C14.847,13.46 14.395,13.009 14.395,12.4505 C14.395,11.685 13.772,11.0615 13.006,11.0615 C12.24,11.0615 11.617,11.685 11.617,12.4505 L11.617,31.176 C11.617,33.0555 10.0875,34.5855 8.2075,34.5855 C6.328,34.5855 4.7985,33.0555 4.7985,31.176 L4.7985,23.3985 C4.7985,22.8405 5.2505,22.3885 5.809,22.3885 C6.366,22.3885 6.8185,22.8405 6.8185,23.3985 L6.8185,31.176 C6.8185,31.9415 7.4415,32.5645 8.2075,32.5645 C8.9735,32.5645 9.597,31.9415 9.597,31.176 L9.597,12.4505 C9.597,10.5695 11.126,9.041 13.006,9.041 Z M22.603,13.9715 C24.4825,13.9715 26.0125,15.501 26.0125,17.3815 C26.0125,17.9395 25.5605,18.392 25.002,18.392 C24.444,18.392 23.992,17.9395 23.992,17.3815 C23.992,16.6155 23.369,15.9925 22.603,15.9925 C21.8375,15.9925 21.214,16.6155 21.214,17.3815 L21.214,26.474 C21.214,28.3545 19.684,29.883 17.804,29.883 C15.9245,29.883 14.395,28.3545 14.395,26.474 L14.395,15.4215 C14.395,14.863 14.847,14.4115 15.405,14.4115 C15.963,14.4115 16.4155,14.863 16.4155,15.4215 L16.4155,26.474 C16.4155,27.24 17.0385,27.8635 17.804,27.8635 C18.57,27.8635 19.1935,27.24 19.1935,26.474 L19.1935,17.3815 C19.1935,15.501 20.7235,13.9715 22.603,13.9715 Z M34.5995,5.3695 C35.1565,5.3695 35.6095,5.8215 35.6095,6.3795 L35.6095,24.718 C35.6095,25.4835 36.2325,26.107 36.9985,26.107 C37.764,26.107 38.3875,25.4835 38.3875,24.718 L38.3875,19.2285 C38.3875,17.3475 39.917,15.818 41.797,15.818 C43.6765,15.818 45.206,17.3475 45.206,19.2285 C45.206,19.786 44.754,20.2385 44.196,20.2385 C43.638,20.2385 43.186,19.786 43.186,19.2285 C43.186,18.4615 42.5635,17.8395 41.797,17.8395 C41.031,17.8395 40.4075,18.4615 40.4075,19.2285 L40.4075,24.718 C40.4075,26.598 38.878,28.1275 36.9985,28.1275 C35.1185,28.1275 33.5895,26.598 33.5895,24.718 L33.5895,6.3795 C33.5895,5.8215 34.0415,5.3695 34.5995,5.3695 Z M3.409,17.018 C5.289,17.018 6.8185,18.5475 6.8185,20.428 C6.8185,20.985 6.366,21.4375 5.809,21.4375 C5.2505,21.4375 4.7985,20.985 4.7985,20.428 C4.7985,19.6615 4.1755,19.0385 3.409,19.0385 C2.6435,19.0385 2.02,19.6615 2.02,20.428 L2.02,26.398 C2.02,26.957 1.568,27.409 1.01,27.409 C0.452,27.409 0,26.957 0,26.398 L0,20.428 C0,18.5475 1.5295,17.018 3.409,17.018 Z M44.196,21.1885 C44.754,21.1885 45.206,21.641 45.206,22.1995 L45.206,26.398 C45.206,26.957 44.754,27.409 44.196,27.409 C43.638,27.409 43.186,26.957 43.186,26.398 L43.186,22.1995 C43.186,21.641 43.638,21.1885 44.196,21.1885 Z" id="Combined-Shape" fill="url(#linearGradient-1)"></path>
                <g id="SAMPLIFIED" transform="translate(53.601002, 12.610110)" fill="#FFFFFF" fill-rule="nonzero">
                    <path d="M7.1688672,5.9950176 C5.2404,5.8902096 3.7521264,5.8482864 3.7521264,4.6325136 C3.7521264,3.773088 4.2552048,3.1023168 5.9530944,3.1023168 C7.5671376,3.1023168 8.3007936,3.7940496 8.3007936,5.3032848 L11.8013808,5.3032848 C11.6965728,1.57212 9.6842592,0 5.9530944,0 C2.2219296,0 0.104808,1.467312 0.104808,5.030784 C0.104808,8.1540624 2.4525072,8.8248336 5.030784,9.013488 C6.9592512,9.1602192 8.6571408,9.0763728 8.6571408,10.2921456 C8.6571408,11.1725328 7.9863696,11.6965728 6.2046336,11.6965728 C4.6744368,11.6965728 3.5005872,11.1306096 3.5005872,9.8938752 L5.68434189e-14,9.8938752 C0.1257696,14.0861952 2.3476992,14.9246592 6.0998256,14.9246592 C10.7533008,14.9246592 12.157728,12.8284992 12.157728,9.8938752 C12.157728,7.126944 10.3340688,6.2046336 7.1688672,5.9950176 Z" id="Path"></path>
                    <path d="M22.8271824,0.1257696 C19.4314032,0.1257696 18.5300544,0.8803872 17.188512,4.1084736 L12.7656144,14.7988896 L16.9998576,14.7988896 L17.9850528,12.367344 L22.8271824,12.367344 L22.8271824,14.7988896 L26.7679632,14.7988896 L26.7679632,0.1257696 L22.8271824,0.1257696 Z M22.8271824,9.0344496 L19.3475568,9.0344496 L20.4585216,6.3094416 C21.2131392,4.4648208 21.904872,3.6053952 22.8271824,3.4796256 L22.8271824,9.0344496 Z" id="Shape"></path>
                    <path d="M41.6297376,0.1257696 C39.1562688,0.1257696 38.5064592,1.1109648 37.9195344,2.9975088 L36.6408768,7.0850208 L35.3622192,2.9975088 C34.7752944,1.1109648 34.1464464,0.1257696 31.652016,0.1257696 L29.2833552,0.1257696 L29.2833552,14.7988896 L33.2660592,14.7988896 L33.2660592,7.3155984 L34.1883696,10.4388768 C34.7752944,12.3883056 34.9849104,12.891384 36.5151072,12.891384 L36.787608,12.891384 C38.2968432,12.891384 38.5274208,12.3883056 39.1143456,10.4388768 L40.036656,7.3155984 L40.036656,14.7988896 L44.01936,14.7988896 L44.01936,0.1257696 L41.6297376,0.1257696 Z" id="Path"></path>
                    <path d="M58.9649808,5.5129008 C58.9649808,3.2071248 57.958824,0.1467312 54.6888144,0.1257696 L46.534752,0.1257696 L46.534752,14.7988896 L50.517456,14.7988896 L50.517456,10.8371472 L54.6678528,10.8371472 C57.9378624,10.8161856 58.9649808,7.7977152 58.9649808,5.5129008 Z M53.2215024,7.4832912 L50.517456,7.4832912 L50.517456,3.458664 L53.2215024,3.458664 C54.2276592,3.458664 54.814584,4.087512 54.814584,5.5338624 C54.814584,6.9802128 54.1647744,7.4832912 53.2215024,7.4832912 Z" id="Shape"></path>
                    <path d="M65.3373072,11.4659952 C64.8342288,11.4659952 64.7294208,11.319264 64.7294208,10.8371472 L64.7294208,0.1257696 L60.7467168,0.1257696 L60.7467168,12.2415744 C60.7467168,13.939464 61.3336416,14.7988896 63.1573008,14.7988896 L70.7873232,14.7988896 L70.7873232,11.4659952 L65.3373072,11.4659952 Z" id="Path"></path>
                    <polygon id="Path" points="76.2373392 14.7988896 76.2373392 0.1257696 72.2546352 0.1257696 72.2546352 14.7988896"></polygon>
                    <path d="M83.2804368,3.458664 L89.5269936,3.458664 L89.5269936,0.1257696 L81.1004304,0.1257696 C79.2767712,0.1257696 78.6898464,0.9851952 78.6898464,2.7040464 L78.6898464,14.7988896 L82.6725504,14.7988896 L82.6725504,9.6632976 L88.6256448,9.6632976 L88.6256448,6.3304032 L82.6725504,6.3304032 L82.6725504,4.087512 C82.6725504,3.6263568 82.7773584,3.458664 83.2804368,3.458664 Z" id="Path"></path>
                    <polygon id="Path" points="95.2495104 14.7988896 95.2495104 0.1257696 91.2668064 0.1257696 91.2668064 14.7988896"></polygon>
                    <path d="M102.250685,3.458664 L108.748781,3.458664 L108.748781,0.1257696 L100.070678,0.1257696 C98.2470192,0.1257696 97.6600944,0.9851952 97.6600944,2.7040464 L97.6600944,12.2415744 C97.6600944,13.939464 98.2470192,14.7988896 100.070678,14.7988896 L108.748781,14.7988896 L108.748781,11.4659952 L102.250685,11.4659952 C101.747606,11.4659952 101.642798,11.319264 101.642798,10.8371472 L101.642798,9.1392576 L107.700701,9.1392576 L107.700701,5.7854016 L101.642798,5.7854016 L101.642798,4.087512 C101.642798,3.6263568 101.747606,3.458664 102.250685,3.458664 Z" id="Path"></path>
                    <path d="M116.881882,0.1257696 L110.886864,0.1257696 L110.886864,14.7988896 L116.881882,14.7988896 C122.62536,14.7988896 123.715363,12.1367664 123.715363,7.4623296 C123.715363,2.7878928 122.62536,0.1257696 116.881882,0.1257696 Z M117.091498,11.4659952 L114.869568,11.4659952 L114.869568,3.458664 L117.091498,3.458664 C118.412078,3.458664 119.732659,4.0246272 119.732659,7.4623296 C119.732659,10.9209936 118.412078,11.4659952 117.091498,11.4659952 Z" id="Shape"></path>
                </g>
            </g>
        </g>
    </g>
</svg>