<?xml version="1.0" encoding="UTF-8"?>
<svg width="444px" height="103px" viewBox="0 0 444 103" version="1.1" xmlns="http://www.w3.org/2000/svg" xmlns:xlink="http://www.w3.org/1999/xlink">
    <title>E5FA0001-0446-496D-BCD6-D07ADCE8D4C6</title>
    <defs>
        <linearGradient x1="12.4534884%" y1="77.9567549%" x2="55.5426422%" y2="46.5946498%" id="linearGradient-1">
            <stop stop-color="#1D8DBA" offset="0%"></stop>
            <stop stop-color="#03ECAE" offset="100%"></stop>
        </linearGradient>
    </defs>
    <g id="Page-1" stroke="none" stroke-width="1" fill="none" fill-rule="evenodd">
        <g id="Sign-In" transform="translate(-71.000000, -440.000000)">
            <g id="Group" transform="translate(71.542000, 440.885000)">
                <path d="M80.5,0 C85.2,0 89.02375,3.82125 89.02375,8.5225 C89.02375,9.9175 87.89125,11.04625 86.49875,11.04625 C85.10375,11.04625 83.97375,9.9175 83.97375,8.5225 C83.97375,6.60875 82.415,5.05 80.5,5.05 C78.58625,5.05 77.0275,6.60875 77.0275,8.5225 L77.0275,92.58875 C77.0275,97.29125 73.20375,101.115 68.50375,101.115 C63.80375,101.115 59.98,97.29125 59.98,92.58875 L59.98,50.88125 C59.98,49.485 61.11,48.355 62.505,48.355 C63.90125,48.355 65.03125,49.485 65.03125,50.88125 L65.03125,92.58875 C65.03125,94.50375 66.58875,96.06375 68.50375,96.06375 C70.4175,96.06375 71.97625,94.50375 71.97625,92.58875 L71.97625,8.5225 C71.97625,3.82125 75.8,0 80.5,0 Z M32.515,22.6025 C37.215,22.6025 41.03875,26.42375 41.03875,31.12625 C41.03875,32.5225 39.9075,33.65 38.5125,33.65 C37.1175,33.65 35.9875,32.5225 35.9875,31.12625 C35.9875,29.2125 34.43,27.65375 32.515,27.65375 C30.6,27.65375 29.0425,29.2125 29.0425,31.12625 L29.0425,77.94 C29.0425,82.63875 25.21875,86.46375 20.51875,86.46375 C15.82,86.46375 11.99625,82.63875 11.99625,77.94 L11.99625,58.49625 C11.99625,57.10125 13.12625,55.97125 14.5225,55.97125 C15.915,55.97125 17.04625,57.10125 17.04625,58.49625 L17.04625,77.94 C17.04625,79.85375 18.60375,81.41125 20.51875,81.41125 C22.43375,81.41125 23.9925,79.85375 23.9925,77.94 L23.9925,31.12625 C23.9925,26.42375 27.815,22.6025 32.515,22.6025 Z M56.5075,34.92875 C61.20625,34.92875 65.03125,38.7525 65.03125,43.45375 C65.03125,44.84875 63.90125,45.98 62.505,45.98 C61.11,45.98 59.98,44.84875 59.98,43.45375 C59.98,41.53875 58.4225,39.98125 56.5075,39.98125 C54.59375,39.98125 53.035,41.53875 53.035,43.45375 L53.035,66.185 C53.035,70.88625 49.21,74.7075 44.51,74.7075 C39.81125,74.7075 35.9875,70.88625 35.9875,66.185 L35.9875,38.55375 C35.9875,37.1575 37.1175,36.02875 38.5125,36.02875 C39.9075,36.02875 41.03875,37.1575 41.03875,38.55375 L41.03875,66.185 C41.03875,68.1 42.59625,69.65875 44.51,69.65875 C46.425,69.65875 47.98375,68.1 47.98375,66.185 L47.98375,43.45375 C47.98375,38.7525 51.80875,34.92875 56.5075,34.92875 Z M86.49875,13.42375 C87.89125,13.42375 89.02375,14.55375 89.02375,15.94875 L89.02375,61.795 C89.02375,63.70875 90.58125,65.2675 92.49625,65.2675 C94.41,65.2675 95.96875,63.70875 95.96875,61.795 L95.96875,48.07125 C95.96875,43.36875 99.7925,39.545 104.4925,39.545 C109.19125,39.545 113.015,43.36875 113.015,48.07125 C113.015,49.465 111.885,50.59625 110.49,50.59625 C109.095,50.59625 107.965,49.465 107.965,48.07125 C107.965,46.15375 106.40875,44.59875 104.4925,44.59875 C102.5775,44.59875 101.01875,46.15375 101.01875,48.07125 L101.01875,61.795 C101.01875,66.495 97.195,70.31875 92.49625,70.31875 C87.79625,70.31875 83.97375,66.495 83.97375,61.795 L83.97375,15.94875 C83.97375,14.55375 85.10375,13.42375 86.49875,13.42375 Z M8.5225,42.545 C13.2225,42.545 17.04625,46.36875 17.04625,51.07 C17.04625,52.4625 15.915,53.59375 14.5225,53.59375 C13.12625,53.59375 11.99625,52.4625 11.99625,51.07 C11.99625,49.15375 10.43875,47.59625 8.5225,47.59625 C6.60875,47.59625 5.05,49.15375 5.05,51.07 L5.05,65.995 C5.05,67.3925 3.92,68.5225 2.525,68.5225 C1.13,68.5225 0,67.3925 0,65.995 L0,51.07 C0,46.36875 3.82375,42.545 8.5225,42.545 Z M110.49,52.97125 C111.885,52.97125 113.015,54.1025 113.015,55.49875 L113.015,65.995 C113.015,67.3925 111.885,68.5225 110.49,68.5225 C109.095,68.5225 107.965,67.3925 107.965,65.995 L107.965,55.49875 C107.965,54.1025 109.095,52.97125 110.49,52.97125 Z" id="Combined-Shape" fill="url(#linearGradient-1)"></path>
                <g id="SAMPLIFIED" transform="translate(134.002506, 31.525276)" fill="#FFFFFF" fill-rule="nonzero">
                    <path d="M17.922168,14.987544 C13.101,14.725524 9.380316,14.620716 9.380316,11.581284 C9.380316,9.43272 10.638012,7.755792 14.882736,7.755792 C18.917844,7.755792 20.751984,9.485124 20.751984,13.258212 L29.503452,13.258212 C29.241432,3.9303 24.210648,0 14.882736,0 C5.554824,0 0.26202,3.66828 0.26202,12.57696 C0.26202,20.385156 6.131268,22.062084 12.57696,22.53372 C17.398128,22.900548 21.642852,22.690932 21.642852,25.730364 C21.642852,27.931332 19.965924,29.241432 15.511584,29.241432 C11.686092,29.241432 8.751468,27.826524 8.751468,24.734688 L0,24.734688 C0.314424,35.215488 5.869248,37.311648 15.249564,37.311648 C26.883252,37.311648 30.39432,32.071248 30.39432,24.734688 C30.39432,17.81736 25.835172,15.511584 17.922168,14.987544 Z" id="Path"></path>
                    <path d="M57.067956,0.314424 C48.578508,0.314424 46.325136,2.200968 42.97128,10.271184 L31.914036,36.997224 L42.499644,36.997224 L44.962632,30.91836 L57.067956,30.91836 L57.067956,36.997224 L66.919908,36.997224 L66.919908,0.314424 L57.067956,0.314424 Z M57.067956,22.586124 L48.368892,22.586124 L51.146304,15.773604 C53.032848,11.162052 54.76218,9.013488 57.067956,8.699064 L57.067956,22.586124 Z" id="Shape"></path>
                    <path d="M104.074344,0.314424 C97.890672,0.314424 96.266148,2.777412 94.798836,7.493772 L91.602192,17.712552 L88.405548,7.493772 C86.938236,2.777412 85.366116,0.314424 79.13004,0.314424 L73.208388,0.314424 L73.208388,36.997224 L83.165148,36.997224 L83.165148,18.288996 L85.470924,26.097192 C86.938236,30.970764 87.462276,32.22846 91.287768,32.22846 L91.96902,32.22846 C95.742108,32.22846 96.318552,30.970764 97.785864,26.097192 L100.09164,18.288996 L100.09164,36.997224 L110.0484,36.997224 L110.0484,0.314424 L104.074344,0.314424 Z" id="Path"></path>
                    <path d="M147.412452,13.782252 C147.412452,8.017812 144.89706,0.366828 136.722036,0.314424 L116.33688,0.314424 L116.33688,36.997224 L126.29364,36.997224 L126.29364,27.092868 L136.669632,27.092868 C144.844656,27.040464 147.412452,19.494288 147.412452,13.782252 Z M133.053756,18.708228 L126.29364,18.708228 L126.29364,8.64666 L133.053756,8.64666 C135.569148,8.64666 137.03646,10.21878 137.03646,13.834656 C137.03646,17.450532 135.411936,18.708228 133.053756,18.708228 Z" id="Shape"></path>
                    <path d="M163.343268,28.664988 C162.085572,28.664988 161.823552,28.29816 161.823552,27.092868 L161.823552,0.314424 L151.866792,0.314424 L151.866792,30.603936 C151.866792,34.84866 153.334104,36.997224 157.893252,36.997224 L176.968308,36.997224 L176.968308,28.664988 L163.343268,28.664988 Z" id="Path"></path>
                    <polygon id="Path" points="190.593348 36.997224 190.593348 0.314424 180.636588 0.314424 180.636588 36.997224"></polygon>
                    <path d="M208.201092,8.64666 L223.817484,8.64666 L223.817484,0.314424 L202.751076,0.314424 C198.191928,0.314424 196.724616,2.462988 196.724616,6.760116 L196.724616,36.997224 L206.681376,36.997224 L206.681376,24.158244 L221.564112,24.158244 L221.564112,15.826008 L206.681376,15.826008 L206.681376,10.21878 C206.681376,9.065892 206.943396,8.64666 208.201092,8.64666 Z" id="Path"></path>
                    <polygon id="Path" points="238.123776 36.997224 238.123776 0.314424 228.167016 0.314424 228.167016 36.997224"></polygon>
                    <path d="M255.626712,8.64666 L271.871952,8.64666 L271.871952,0.314424 L250.176696,0.314424 C245.617548,0.314424 244.150236,2.462988 244.150236,6.760116 L244.150236,30.603936 C244.150236,34.84866 245.617548,36.997224 250.176696,36.997224 L271.871952,36.997224 L271.871952,28.664988 L255.626712,28.664988 C254.369016,28.664988 254.106996,28.29816 254.106996,27.092868 L254.106996,22.848144 L269.251752,22.848144 L269.251752,14.463504 L254.106996,14.463504 L254.106996,10.21878 C254.106996,9.065892 254.369016,8.64666 255.626712,8.64666 Z" id="Path"></path>
                    <path d="M292.204704,0.314424 L277.21716,0.314424 L277.21716,36.997224 L292.204704,36.997224 C306.5634,36.997224 309.288408,30.341916 309.288408,18.655824 C309.288408,6.969732 306.5634,0.314424 292.204704,0.314424 Z M292.728744,28.664988 L287.17392,28.664988 L287.17392,8.64666 L292.728744,8.64666 C296.030196,8.64666 299.331648,10.061568 299.331648,18.655824 C299.331648,27.302484 296.030196,28.664988 292.728744,28.664988 Z" id="Shape"></path>
                </g>
            </g>
        </g>
    </g>
</svg>